# xmcd
#
# Track frame offsets:
#	182
#	19415
#	38285
#	57387
#	76000
#
# Disc length: 1292 seconds
# Revision: 0
# Processed by: cddbd v1.5.2PL0 Copyright (c) Steve Scherf et al.
# Submitted via: dBpowerAMP V12.0
#
DISCID=2e050a05
DTITLE=Boyz II Men - Doin' Just Fine
DYEAR=1998
DGENRE=R&B
TTITLE0=Doin' Just Fine [Radio Version]
TTITLE1=Doin' Just Fine [Cibola Radio Edit]
TTITLE2=A Mi Me Va Bien (Doin' Just Fine) [Spanish Radio Edit]
TTITLE3=A Mi Me Va Bien (Doin' Just Fine) [Soul Solution Spanish Radio Edit]
TTITLE4=Doin' Just Fine [Soul Solution Radio Version]
EXTD=
EXTT0=
EXTT1=
EXTT2=
EXTT3=
EXTT4=
PLAYORDER=
